<?xml version="1.0" encoding="UTF-8" standalone="no"?>
<!-- Created with Inkscape (http://www.inkscape.org/) -->

<svg
   width="210mm"
   height="185mm"
   viewBox="0 0 210 185"
   version="1.1"
   id="svg5"
   xml:space="preserve"
   xmlns="http://www.w3.org/2000/svg"><defs
     id="defs2"><style
       id="style25">.cls-1{fill:#b8bcd7;}.cls-2{fill:#245fa1;}.cls-3,.cls-6{fill:none;stroke:#262731;stroke-miterlimit:10;}.cls-3{stroke-width:4px;}.cls-4{fill:#be6bab;}.cls-5{fill:#959595;}.cls-6{stroke-width:3px;}.cls-7{fill:#ebe9e1;}</style></defs><g
     id="layer1"><g
       id="Layer_3"
       data-name="Layer 3"
       transform="matrix(0.26458333,0,0,0.26458333,43.521941,88.015815)"><path
         class="cls-1"
         d="m 242.07864,350.67468 c 184.3298,0 333.80676,-149.44271 333.80676,-333.806747 0,-184.364043 -149.42559,-333.806753 -333.80676,-333.806753 -184.381152,0 -333.806744,149.44271 -333.806744,333.806753 0,184.364037 149.476954,333.806747 333.806744,333.806747 z"
         id="path29"
         style="fill:#163578;fill-opacity:1;stroke-width:1.71183" /><path
         class="cls-2"
         d="M 442.84202,-245.65824 C 420.69093,-43.268639 249.25121,114.06561 41.04139,114.06561 A 403.51244,403.51244 0 0 1 -97.873573,89.552209 333.80675,333.80675 0 0 0 225.8505,341.73893 c 184.32981,0 333.80676,-149.42559 333.80676,-333.8067595 A 332.89948,332.89948 0 0 0 442.84202,-245.65824 Z"
         id="path31"
         style="fill:#567ac8;fill-opacity:1;stroke-width:1.71183" /><path
         class="cls-3"
         d="m 249.79899,343.69041 c 184.32981,0 333.80677,-149.42559 333.80677,-333.8067445 0,-184.3811555 -149.44274,-333.8067555 -333.80677,-333.8067555 -184.364025,0 -333.806744,149.4256 -333.806744,333.8067555 0,184.3811545 149.476951,333.8067445 333.806744,333.8067445 z"
         id="path33" /><path
         class="cls-4"
         d="m 24.042927,-205.77261 c 0,0 -27.1838607,46.45905 -27.1838607,62.77278 0,16.31374 2.48215336,9.39795 2.48215336,9.39795 l -4.94717786,26.19099 c 0,0 5.42648716,8.901511 0,13.352267 -5.4264998,4.450757 2.8929846,6.419361 2.8929846,6.419361 0,0 2.46503696,9.397944 -0.4964257,11.845861 0,0 6.4707129,10.93859 5.9400418,13.591925 a 2.4136796,2.4136796 0 0 0 3.184001,-1.848775 c 0.5135546,-2.653337 -3.9885594,-3.42366 -3.9885594,-9.808783 0,-6.385126 -0.5306585,-15.406465 -0.5306585,-15.406465 0,0 -2.6533424,-2.92723 -1.31811303,-9.552011 a 20.319415,20.319415 0 0 0 -1.06132941,-11.67468 l 2.12265884,-8.45643 4.2453305,2.65333 -2.1226589,11.98281 c 0,0 2.8074026,10.852997 4.9814232,9.021341 l -1.1298076,5.049896 2.6362261,3.098411 c 0,0 1.2153897,0.222539 1.0442007,2.345208 a 4.9985422,4.9985422 0 0 1 -2.5677482,3.423658 c 0,0 6.2824332,3.885853 6.0941272,7.600523 -0.188305,3.714669 6.368002,7.788824 7.258155,15.560525 a 19.908577,19.908577 0 0 1 -2.122659,12.376534 v 3.885855 c 0,0 7.412215,11.126885 13.078369,13.797346 a 94.150623,94.150623 0 0 1 13.437852,8.661851 c 0,0 11.486381,4.057038 14.653266,9.021344 3.166884,4.9643065 11.982807,-5.306672 19.977055,-3.714671 7.994235,1.592 9.19252,12.7188865 13.968534,14.31088654 a 26.70454,26.70454 0 0 0 8.114073,1.52353496 c 0,0 6.05986,5.049902 17.30659,5.135484 a 95.862451,95.862451 0 0 1 8.11407,7.8915495 c 1.47218,2.037064 4.22823,7.32662 4.22823,7.32662 0,0 9.20962,1.181157 10.52774,6.710368 a 13.095496,13.095496 0 0 0 7.00138,8.02848 l 3.78315,-1.16404 c 0,0 1.47217,1.609129 0,2.910101 -1.47218,1.300997 6.12834,1.164053 9.03846,2.636226 2.91012,1.472186 4.65618,6.556307 6.69325,6.710368 2.03708,0.15406 5.70039,0 5.70039,0 a 3.9200895,3.9200895 0 0 0 1.04421,-1.711828 3.7317884,3.7317884 0 0 0 0,-1.985715 c -0.51355,-2.259616 -4.53634,-1.540639 -4.43363,-4.022805 0.10277,-2.482154 6.84732,-5.820215 9.74032,-4.844467 a 11.674677,11.674677 0 0 1 4.91294,3.423643 c 0,0 -0.65049,4.09127 1.47216,5.888705 2.12268,1.797422 4.96431,2.875868 6.48786,6.590537 1.52352,3.71468 1.83164,15.92002 1.83164,15.92002 l -2.00283,0.59914 c 0,0 4.62193,4.19398 3.01282,6.71036 -1.60913,2.5164 3.57772,9.32948 -2.77317,8.45646 a 9.4150623,9.4150623 0 0 0 -1.26676,4.34803 c 0,0 0.8388,-1.23251 1.02711,1.79743 0,0 0,5.13547 -6.077,3.42366 0,0 1.26675,3.5606 0.17118,5.13548 -1.09556,1.57488 -1.42081,6.659021 -4.75889,8.165421 0,0 -1.06133,2.49927 1.71183,6.24819 a 49.865593,49.865593 0 0 0 4.57059,5.49497 4.7246494,4.7246494 0 0 0 -0.3766,4.93007 c 1.28387,10.27097 12.56482,21.74023 12.56482,21.74023 0,0 12.73602,6.84733 16.48492,12.97567 3.74892,6.12834 2.19115,5.47787 8.91863,18.43641 0,0 2.19114,0.47931 2.34521,4.1255 0,0 2.49927,-0.42796 3.08129,1.35235 a 24.410688,24.410688 0 0 1 0.85591,3.14976 c 0,0 7.12122,5.58056 7.46358,7.61764 0.34238,2.03708 -0.51353,2.29386 -0.51353,2.29386 0,0 -1.12982,-0.56491 -1.06136,0 0.0685,0.56489 8.3195,8.86727 10.1854,9.32947 0.49643,0.11977 -2.91011,1.71182 -5.92294,4.55346 -2.41367,2.20827 -4.57058,5.1355 -4.34804,8.55915 a 40.519005,40.519005 0 0 1 1.16405,8.35372 c -0.10277,4.31382 -1.52353,9.36371 -1.55778,13.54057 -0.0341,4.17688 0,7.32664 0.39373,7.65189 a 15.303757,15.303757 0 0 1 5.90582,2.24249 52.621638,52.621638 0 0 1 8.06272,5.6148 c 1.47216,1.21541 -2.0542,7.42934 -0.7361,15.30376 1.09557,6.48784 -0.87303,13.36939 -1.90013,19.90858 -1.0271,6.53919 -4.63904,13.30091 -2.49927,16.22815 1.12981,1.54064 3.98856,6.16258 2.25962,10.27096 -1.0271,2.43081 0.8388,4.27958 1.57488,6.14547 0.73608,1.8659 0.41083,3.7318 1.12981,4.69043 1.71183,2.32808 3.61196,0.42795 8.73033,-0.13697 4.09127,-0.44506 7.90865,-3.26958 15.73172,-1.71181 4.3138,0.85592 9.02133,0.37659 16.12543,-2.03708 1.98571,-0.66762 6.19682,-4.26246 8.55915,-5.78598 1.592,-0.99287 2.97858,-2.75606 4.72464,-4.00569 2.10555,-1.52354 5.13549,-1.71183 7.37798,-3.57773 4.53636,-3.42365 9.48355,-7.27527 14.72174,-10.92146 8.78168,-6.11124 16.34797,-16.69033 22.3565,-26.24235 4.14262,-6.59055 7.56628,-12.68465 10.13402,-16.50204 8.55916,-12.65042 25.57474,-35.76011 32.31935,-49.78 1.35234,-2.77315 -3.26961,-11.88009 0,-21.8943 2.03708,-6.16258 10.71604,-2.82452 13.69463,-10.9386 0,0 -7.89153,-7.24102 -6.47072,-10.95569 0.87305,-2.2425 21.02128,-3.42366 21.02128,-3.42366 l 13.54056,-31.56615 c 0,0 -1.12981,-13.81446 4.31381,-25.67744 3.93721,-8.456441 -7.20681,-17.477771 -7.13833,-17.546241 -4.89583,-0.85592 -13.43785,-1.71182 -17.11829,0.63337 -3.68044,2.34521 -26.87571,-4.48499 -26.44777,-8.55915 0.42796,-4.07415 -2.97858,-3.20112 -4.91294,-3.42365 -1.93437,-0.22254 -2.12267,-4.69041 -2.12267,-4.69041 a 13.437861,13.437861 0 0 1 -2.99571,-10.87013 c 1.28388,-6.19681 5.76888,-7.908653 3.42365,-9.175404 -2.34519,-1.266751 -6.60765,-2.567736 -8.31948,-4.26246 a 21.860063,21.860063 0 0 0 -7.89152,-4.484997 c -2.77317,-0.838779 -9.17541,-2.345197 -11.72604,-0.855908 -2.55063,1.489302 -16.8444,1.078459 -19.1725,-4.262447 -2.32809,-5.340905 -21.53481,-10.442155 -21.53481,-10.442155 0,0 0.42796,-2.77317 -1.28386,-3.629078 -1.71184,-0.85592 -7.39512,-5.991416 -12.06841,-4.553476 -4.6733,1.437928 -1.06134,-2.396571 -2.56774,-3.252479 -1.50642,-0.85592 -11.50349,0.530659 -11.50349,1.33523 0,0.804558 -0.22255,3.132652 -6.84732,3.78315 -6.62478,0.650486 -6.19683,-1.865901 -6.19683,-1.865901 0,0 -13.43785,2.07131 -14.92715,-0.804571 -1.4893,-2.875855 -10.37369,-5.8030855 -10.37369,-5.8030855 0,0 -2.63622,-6.659018 -3.28671,-4.741769 -0.6505,1.91725 -1.91725,5.323777 -0.20543,6.3851195 0,0 -8.55915,2.054206 -8.95286,4.964306 -0.39373,2.910114 -4.485,-4.108399 -4.485,-4.108399 a 2.7560454,2.7560454 0 0 1 0.75322,-1.009967 2.4821527,2.4821527 0 0 1 1.3181,-0.2910175 c 1.50642,-0.222538 3.42367,-0.222538 3.85162,-2.567735 0.42796,-2.345223 -4.485,-3.184001 -4.485,-3.184001 0,0 -2.3452,1.489277 -1.91725,2.550619 0.42797,1.061329 -9.79166,10.2709795 -15.02986,6.8473115 a 5.1354884,5.1354884 0 0 1 -0.94151,3.269595 c -1.04421,1.027097 -8.95287,-3.611948 -9.43218,7.104095 -0.4793,10.716043 -8.07982,11.1269 -8.07982,11.1269 0,0 -0.0855,0 0.51354,1.369449 a 3.9029713,3.9029713 0 0 1 -0.10277,2.892997 c 0,0 -8.55915,-9.380826 -10.27099,-9.380826 -1.71183,0 -8.07983,-3.201117 -15.57764,2.396559 a 14.67038,14.67038 0 0 1 -15.18393,1.386579 c 0,0 -6.62478,-2.447908 -7.46357,-4.296693 -0.8388,-1.848771 -1.16405,-8.18254 -3.18401,-8.850155 -2.01997,-0.667615 -7.17257,-1.506406 -7.17257,-3.423655 0,-1.91725 -3.74889,-14.8586885 -0.87304,-15.8686565 2.87589,-1.00997996 -1.57488,-3.029941 -1.57488,-5.323801 0,-2.293836 -0.85591,-3.594832 0.85592,-6.1968255 1.71183,-2.601968 0.15407,-6.04274 -1.00998,-6.333769 -1.16404,-0.291004 -7.18968,2.738937 -9.48354,1.865913 -2.29383,-0.873036 -10.27096,1.437941 -10.27096,1.437941 0,0 -3.30383,0.427947 -3.73179,-0.855921 -0.42796,-1.28388 2.29385,-2.87588 2.29385,-2.87588 a 12.068398,12.068398 0 0 0 1.71182,-6.624773 c -0.29101,-3.423656 3.74892,-5.46074 3.74892,-7.326631 0,-1.865904 -0.15407,-4.895844 -0.15407,-4.895844 0,0 3.88585,-3.885841 3.30383,-5.751745 a 21.055503,21.055503 0 0 0 -1.43793,-3.423661 c 0,0 5.47785,-2.58486 6.21394,-5.460726 0.73608,-2.87588 -1.00999,-5.631928 -3.16688,-5.631928 -2.15692,0 -9.05558,-1.129806 -10.49352,1.28388 -1.43794,2.413672 -8.35373,1.129805 -9.20965,3.423661 a 113.23752,113.23752 0 0 0 -3.59483,11.50349 c -1.12981,4.604824 -9.620499,7.258158 -9.620499,7.258158 0,0 -10.116906,0.667612 -12.718887,2.533503 -2.601981,1.865904 -1.71184,-3.33806 -3.338061,-3.423661 -1.626246,-0.08557 -4.433636,0 -5.306685,-0.616254 -0.873024,-0.616254 -0.376598,-2.721806 -1.352333,-2.824522 -0.975748,-0.102748 -2.601994,-2.601976 -1.985728,-3.098413 0.616253,-0.496423 -2.465037,-5.426496 -3.08129,-6.847307 -0.616266,-1.420825 -1.609117,-7.172571 -0.992864,-7.172571 0.616253,0 -3.783138,-3.731794 -0.633382,-13.694635 3.149768,-9.962848 5.238207,-13.917173 5.392267,-17.803027 0.15406,-3.885853 -2.037077,-13.027023 14.858675,-20.661785 16.895747,-7.63476 19.634687,-6.26529 22.630387,-5.85445 2.9957,0.41083 1.91725,3.13264 4.776,3.68043 2.85877,0.54778 5.30669,-1.91725 6.12835,-3.13265 0.82169,-1.2154 8.04561,-2.46503 10.27099,-2.19114 2.22538,0.27389 6.26529,-0.82168 9.14116,-0.82168 2.87588,0 17.5805,4.22822 17.71744,5.13549 0.13694,0.90727 -0.13694,8.73033 -0.82169,9.39794 -0.68472,0.667617 3.95434,9.021345 3.95434,9.021345 0,0 2.39656,-0.239656 2.24249,3.047058 -0.15406,3.286713 1.71184,-0.256775 1.71184,-0.256775 0,0 2.48215,6.008521 3.86873,6.624779 1.38658,0.61626 3.86873,-1.711829 4.51923,-3.868735 a 33.1239,33.1239 0 0 0 1.07846,-8.559147 49.317808,49.317808 0 0 0 -3.42367,-9.432185 c -0.59914,-1.09556 0.15406,-3.86873 -0.15407,-4.51922 -0.30812,-0.6505 -0.92439,-0.4622 -1.54064,-0.61626 -0.61625,-0.15407 -3.85162,-9.86014 -2.94435,-11.14401 0.90727,-1.28388 6.3509,-6.62478 7.25816,-6.62478 0.90727,0 4.51923,-2.97859 4.51923,-4.14263 0,-1.16404 -1.43794,-7.13833 0.37661,-8.81592 1.81454,-1.6776 8.83303,-4.41652 10.64758,-5.58057 1.81452,-1.16404 9.58623,-7.75458 9.58623,-13.45498 0,-5.70039 -2.85875,-15.52629 -1.04421,-13.69463 1.81455,1.83166 0.95863,6.31665 1.26675,6.84732 0.30813,0.53066 4.26246,-2.12267 4.8616,-6.28242 0.59915,-4.15974 2.53351,-7.27527 4.62194,-6.84732 2.08844,0.42796 0.58203,-6.84731 3.85163,-7.99424 3.26958,-1.14693 2.80739,0.87303 4.74175,0.29101 a 31.908501,31.908501 0 0 0 6.077,-3.85161 48.410538,48.410538 0 0 1 7.85729,0.13694 c 2.5164,0.44508 -0.59914,-5.92293 -1.19827,-5.32379 -0.59915,0.59914 0.75321,2.07132 -0.44508,2.20826 -1.19828,0.13695 -4.14262,-3.42366 -3.25248,-6.368 0.89016,-2.94435 12.75315,-9.10694 15.40648,-9.9115 2.65333,-0.80456 3.21822,3.66332 6.43647,1.23252 0,0 1.04422,3.30383 3.21824,3.98856 2.17402,0.68474 7.73747,-6.60766 7.73747,-6.60766 0,0 12.17111,-3.04706 13.5748,-6.07699 1.40371,-3.02994 2.15692,2.27673 4.69042,-3.56061 a 5.8373387,5.8373387 0 0 1 -3.184,-0.51355 c -1.45505,-0.77032 1.12981,-2.12267 -0.68474,-2.41368 -1.81453,-0.29101 -4.5021,2.70469 -4.24533,4.63906 0.25677,1.93437 -6.65902,3.42366 -6.57344,2.22538 0.0855,-1.19828 3.57774,-3.23536 2.25963,-3.49213 -1.3181,-0.25678 -6.3509,5.13549 -7.60053,2.32809 -1.24963,-2.80741 -5.6148,-2.99571 -5.13547,-5.34091 0.4793,-2.34521 -5.32381,-1.23252 -6.29955,-3.20112 -0.97575,-1.96861 4.19399,1.1298 5.13549,0 0.9415,-1.12981 -0.22254,-1.71183 0.7532,-1.71183 0.97575,0 0.37661,0.99286 3.42367,0 a 13.55769,13.55769 0 0 0 7.18967,-4.46788 c 2.41369,-2.77316 8.95288,-6.16258 13.21533,-3.30383 4.26246,2.85876 17.61473,9.58625 18.24811,8.83304 0.63338,-0.7532 6.60766,-1.98572 7.24104,0 0.63337,1.98572 6.67613,5.03278 7.41221,2.97858 0.7361,-2.05419 -0.99285,-6.19682 -1.71182,-6.28241 -0.71897,-0.0856 -2.53351,0.5649 -2.53351,-0.5649 0,-1.12981 -1.71182,0.41083 -1.95149,0 -0.23966,-0.41084 -0.41083,-3.42366 0.41084,-3.18401 0.82169,0.23966 -3.42367,0.41084 -3.42367,-2.36232 0,-2.77317 -0.47931,-7.18969 -3.66331,-7.18969 -3.18398,0 -20.7816,-4.99854 -23.8629,-10.51063 -3.08129,-5.51209 -3.08129,-8.95287 -5.88869,-9.22676 -2.80739,-0.27389 -7.82305,0.78744 -9.87724,-0.51355 -2.05422,-1.30099 -4.98144,-4.09127 -6.40225,-4.2111 -1.42082,-0.11983 -2.12268,-0.83879 -4.84449,-3.42366 -2.7218,-2.58486 -4.14262,-1.9686 -7.90865,1.592 -3.76603,3.56061 -13.2838,0.10271 -13.69463,-4.86159 -0.41084,-4.96431 -5.3238,0.99286 -10.40793,-4.38229 -5.08414,-5.37515 -15.01274,0 -15.01274,0 0,0 0.9415,7.27528 0.32525,8.90152 -0.61626,1.62624 -5.73463,4.45075 -5.73463,4.45075 0,0 6.2653,1.36947 7.2068,6.95003 0.94151,5.58057 -8.33661,4.00568 -9.22676,7.08698 -0.89014,3.08129 2.05419,9.1754 0.37661,10.27097 -1.67761,1.09557 -4.3823,6.59055 -5.40938,6.71037 -1.02711,0.11983 -9.36371,-5.01565 -9.36371,-7.60052 0,-2.58486 0.90727,-10.06556 0.90727,-10.06556 0,0 -8.0456,-2.79028 -12.27383,-1.06133 -4.22821,1.72895 -9.96284,-2.10555 -11.50348,-2.48215 -1.54065,-0.37661 -7.2924,0.7532 -9.20965,0.1883 -1.91725,-0.56491 0.56491,-5.56345 0.56491,-5.56345 0,0 -3.06418,1.91725 -3.25249,0.77033 -0.1883,-1.14693 7.66901,-12.85584 19.3608,-15.54341 a 23.965613,23.965613 0 0 1 17.42643,-4.485 c 0,0 -1.9515,1.19828 -1.23252,1.71183 0.71896,0.51355 4.43363,-0.77033 4.43363,-0.77033 0,0 2.51639,-3.93721 6.02564,-2.94434 a 7.258157,7.258157 0 0 0 5.46073,-0.15406 c 0,0 -9.86012,-0.9415 -9.41504,-2.15691 0.44506,-1.2154 4.00566,-0.22254 3.69754,-1.14692 -0.30813,-0.92439 -5.46073,-3.76603 -6.84731,-3.76603 -1.38659,0 -3.95433,2.53351 -5.3238,1.07845 -1.36947,-1.45505 2.29386,-3.02994 0.90728,-3.62907 -1.38659,-0.59914 -3.56061,-0.20543 -7.12122,0 -3.5606,0.20542 -5.71752,5.13548 -8.09696,5.13548 -2.37945,0 -10.27097,5.3409 -11.8801,0.20542 -1.6091,-5.13548 -14.9785,3.54348 -15.74882,3.42366 -0.77032,-0.11978 2.01995,-2.01996 0.61626,-2.65333 -1.4037,-0.63338 -7.03562,2.20825 -8.45644,1.09557 -1.42083,-1.11269 12.39365,-2.61911 12.39365,-2.61911 0,0 3.69755,-2.80739 -0.41083,-3.11552 -4.1084,-0.30813 -17.11831,5.68327 -20.02842,4.82735 -2.91011,-0.85591 -6.11122,6.84733 -10.56198,3.20113 -4.450757,-3.64619 -9.243888,2.77316 -9.928619,4.38228 -0.684731,1.60912 -7.634766,7.27528 -9.654726,7.27528 -2.019948,0 -18.932817,16.34797 -23.674585,16.48492 -4.741782,0.13694 -25.506278,27.47486 -26.259475,31.05258 -0.753209,3.57772 -0.890153,8.18255 -1.711828,9.67184 -0.821687,1.48929 -7.052745,7.96001 -7.052745,7.96001 z"
         id="path35"
         style="fill:#f3cc00;fill-opacity:1;stroke-width:1.71183" /><path
         class="cls-5"
         d="m 300.99981,15.378631 c -4.6904,1.43794 -1.06133,-2.396559 -2.56773,-3.252467 -1.50642,-0.85592 -11.5035,0.530659 -11.5035,1.335217 0,0.804559 -0.22254,3.132665 -6.84732,3.78315 -6.62478,0.650486 -6.19682,-1.8659 -6.19682,-1.8659 0,0 -13.43786,2.071322 -14.92715,-0.804558 C 257.468,11.698192 248.5836,8.7709735 248.5836,8.7709735 c 0,0 -2.63621,-6.659018 -3.28671,-4.741768 -0.6505,1.917249 -1.91725,5.323789 -0.20542,6.3851315 0,0 -8.55916,2.054193 -8.95287,4.964294 -0.39373,2.910114 -4.485,-4.108387 -4.485,-4.108387 a 2.7560454,2.7560454 0 0 1 0.75321,-1.009967 2.4821527,2.4821527 0 0 1 1.11269,-0.4622065 c 1.50642,-0.222538 3.42367,-0.222538 3.85162,-2.567735 0.42796,-2.345223 -4.485,-3.184001 -4.485,-3.184001 0,0 -2.3452,1.489277 -1.91725,2.550619 0.42797,1.061329 -9.79166,10.2709795 -15.02986,6.8473115 a 5.1354884,5.1354884 0 0 1 -0.94151,3.269595 c -1.04421,1.027097 -8.95287,-3.611948 -9.43218,7.104095 -0.4793,10.716043 -8.07982,11.1269 -8.07982,11.1269 0,0 -0.0855,0 0.51354,1.369449 a 3.9029713,3.9029713 0 0 1 -0.10277,2.892997 c 0,0 -8.55915,-9.380826 -10.27099,-9.380826 -1.71183,0 -8.07983,-3.201117 -15.57764,2.396559 a 14.67038,14.67038 0 0 1 -15.18393,1.386579 c 0,0 -6.62478,-2.447908 -7.46357,-4.296693 -0.8388,-1.848771 -1.16405,-8.18254 -3.18401,-8.850155 -2.01997,-0.667615 -7.17257,-1.506406 -7.17257,-3.423655 0,-1.91725 -3.74889,-14.8586885 -0.87304,-15.8686565 2.87589,-1.00997996 -1.57488,-3.029941 -1.57488,-5.323801 0,-2.293836 -0.85591,-3.594832 0.85592,-6.1968255 1.71183,-2.601968 0.15407,-6.04274 -1.00998,-6.333769 -1.16404,-0.291004 -7.18968,2.738937 -9.48354,1.865913 -2.29383,-0.873036 -10.27096,1.437941 -10.27096,1.437941 0,0 -3.30383,0.427947 -3.73179,-0.855921 -0.42796,-1.28388 2.29385,-2.87588 2.29385,-2.87588 a 12.068398,12.068398 0 0 0 1.71182,-6.624773 c -0.29101,-3.423656 3.74892,-5.46074 3.74892,-7.326631 0,-1.865904 -0.15407,-4.895844 -0.15407,-4.895844 0,0 3.88585,-3.885841 3.30383,-5.751745 a 21.055503,21.055503 0 0 0 -1.43793,-3.423661 c 0,0 5.47785,-2.58486 6.21394,-5.460726 0.73608,-2.87588 -1.00999,-5.631928 -3.16688,-5.631928 -2.15692,0 -9.05558,-1.129806 -10.49352,1.28388 -1.43794,2.413672 -8.35373,1.129805 -9.20965,3.423661 a 113.23752,113.23752 0 0 0 -3.59483,11.50349 c -1.12981,4.604824 -9.620499,7.258158 -9.620499,7.258158 0,0 -10.116906,0.667612 -12.718887,2.533503 -2.601981,1.865904 -1.71184,-3.33806 -3.338061,-3.423661 -1.626246,-0.08557 -4.433636,0 -5.306685,-0.616254 -0.873024,-0.616254 -0.376598,-2.721806 -1.352333,-2.824522 -0.975748,-0.102748 -2.601994,-2.601976 -1.985728,-3.098413 0.616253,-0.496423 -2.465037,-5.426496 -3.08129,-6.847307 -0.616266,-1.420825 -1.609117,-7.172571 -0.992864,-7.172571 0.616253,0 -3.783138,-3.731794 -0.633382,-13.694635 3.149768,-9.962848 5.238207,-13.917173 5.392267,-17.803027 0.15406,-3.885853 -2.037077,-13.027023 14.858675,-20.661785 16.895747,-7.63476 19.634687,-6.26529 22.630387,-5.85445 2.9957,0.41083 1.91725,3.13264 4.776,3.68043 2.85877,0.54778 5.30669,-1.91725 6.12835,-3.13265 0.82169,-1.2154 8.04561,-2.46503 10.27099,-2.19114 2.22538,0.27389 6.26529,-0.82168 9.14116,-0.82168 2.87588,0 17.5805,4.22822 17.71744,5.13549 0.13694,0.90727 -0.13694,8.73033 -0.82169,9.39794 -0.68472,0.667617 3.95434,9.021345 3.95434,9.021345 0,0 2.39656,-0.239656 2.24249,3.047058 -0.15406,3.286713 1.71184,-0.256775 1.71184,-0.256775 0,0 2.48215,6.008521 3.86873,6.624779 1.38658,0.61626 3.86873,-1.711829 4.51923,-3.868735 a 33.1239,33.1239 0 0 0 1.07846,-8.559147 49.317808,49.317808 0 0 0 -3.42367,-9.432185 c -0.59914,-1.09556 0.15406,-3.86873 -0.15407,-4.51922 -0.30812,-0.6505 -0.92439,-0.4622 -1.54064,-0.61626 -0.61625,-0.15407 -3.85162,-9.86014 -2.94435,-11.14401 0.90727,-1.28388 6.3509,-6.62478 7.25816,-6.62478 0.90727,0 4.51923,-2.97859 4.51923,-4.14263 0,-1.16404 -1.43794,-7.13833 0.37661,-8.81592 1.81454,-1.6776 8.83303,-4.41652 10.64758,-5.58057 1.81452,-1.16404 9.58623,-7.75458 9.58623,-13.45498 0,-5.70039 -2.85875,-15.52629 -1.04421,-13.69463 1.81455,1.83166 0.95863,6.31665 1.26675,6.84732 0.30813,0.53066 4.24534,-2.12267 4.8616,-6.28242 0.61625,-4.15974 2.53351,-7.27527 4.62194,-6.84732 2.08844,0.42796 0.58203,-6.84731 3.85163,-7.99424 3.26958,-1.14693 2.80739,0.87303 4.74175,0.29101 a 31.908501,31.908501 0 0 0 6.077,-3.85161 48.410538,48.410538 0 0 1 7.85729,0.13694 c 2.5164,0.44508 -0.59914,-5.92293 -1.19827,-5.32379 -0.59915,0.59914 0.75321,2.07132 -0.44508,2.20826 -1.19828,0.13695 -4.14262,-3.42366 -3.25248,-6.368 0.89016,-2.94435 12.75315,-9.10694 15.40648,-9.9115 2.65333,-0.80456 3.21822,3.66332 6.43647,1.23252 0,0 1.04422,3.30383 3.21824,3.98856 2.17402,0.68474 7.73747,-6.60766 7.73747,-6.60766 0,0 12.17111,-3.04706 13.5748,-6.07699 1.40371,-3.02994 2.15692,2.27673 4.69042,-3.56061 a 5.8373387,5.8373387 0 0 1 -3.184,-0.51355 c -1.45505,-0.77032 1.12981,-2.12267 -0.68474,-2.41368 -1.81453,-0.29101 -4.5021,2.70469 -4.24533,4.63906 0.25677,1.93437 -6.65902,3.42366 -6.57344,2.22538 0.0855,-1.19828 3.57774,-3.23536 2.25963,-3.49213 -1.3181,-0.25678 -6.3509,5.13549 -7.60053,2.32809 -1.24963,-2.80741 -5.6148,-2.99571 -5.13547,-5.34091 0.4793,-2.34521 -5.32381,-1.23252 -6.29955,-3.20112 -0.97575,-1.96861 4.19399,1.1298 5.13549,0 0.9415,-1.12981 -0.22254,-1.71183 0.7532,-1.71183 0.97575,0 0.37661,0.99286 3.42367,0 a 13.55769,13.55769 0 0 0 7.18967,-4.46788 c 2.41369,-2.77316 8.95288,-6.16258 13.21533,-3.30383 4.26246,2.85876 17.61473,9.58625 18.24811,8.83304 0.63338,-0.7532 6.60766,-1.98572 7.24104,0 0.63337,1.98572 6.67613,5.03278 7.41221,2.97858 0.7361,-2.05419 -0.99285,-6.19682 -1.71182,-6.28241 -0.71897,-0.0856 -2.53351,0.5649 -2.53351,-0.5649 0,-1.12981 -1.71182,0.41083 -1.95149,0 -0.23966,-0.41084 -0.41083,-3.42366 0.41084,-3.18401 0.82169,0.23966 -3.42367,0.41084 -3.42367,-2.36232 0,-2.77317 -0.47931,-7.18969 -3.66331,-7.18969 -3.18398,0 -20.7816,-4.99854 -23.8629,-10.51063 -3.08129,-5.51209 -3.08129,-8.95287 -5.88869,-9.22676 -2.80739,-0.27389 -7.82305,0.78744 -9.87724,-0.51355 -2.05422,-1.30099 -4.98144,-4.09127 -6.40225,-4.2111 -1.42082,-0.11983 -2.12268,-0.83879 -4.84449,-3.42366 -2.7218,-2.58486 -4.14262,-1.9686 -7.90865,1.592 -3.76603,3.56061 -13.2838,0.10271 -13.69463,-4.86159 -0.41084,-4.96431 -5.3238,0.99286 -10.40793,-4.38229 -5.08414,-5.37515 -15.01274,0 -15.01274,0 0,0 0.9415,7.27528 0.32525,8.90152 -0.61626,1.62624 -5.73463,4.45075 -5.73463,4.45075 0,0 6.2653,1.36947 7.2068,6.95003 0.94151,5.58057 -8.33661,4.00568 -9.22676,7.08698 -0.89014,3.08129 2.05419,9.1754 0.37661,10.27097 -1.67761,1.09557 -4.3823,6.59055 -5.40938,6.71037 -1.02711,0.11983 -9.36371,-5.01565 -9.36371,-7.60052 0,-2.58486 0.90727,-10.06556 0.90727,-10.06556 0,0 -8.0456,-2.79028 -12.27383,-1.06133 -4.22821,1.72895 -9.96284,-2.10555 -11.50348,-2.48215 -1.54065,-0.37661 -7.2924,0.7532 -9.20965,0.1883 -1.91725,-0.56491 0.56491,-5.56345 0.56491,-5.56345 0,0 -3.06418,1.91725 -3.25249,0.77033 -0.1883,-1.14693 7.66901,-12.85584 19.3608,-15.54341 a 23.965613,23.965613 0 0 1 17.42643,-4.485 c 0,0 -1.9515,1.19828 -1.23252,1.71183 0.71896,0.51355 4.43363,-0.77033 4.43363,-0.77033 0,0 2.51639,-3.93721 6.02564,-2.94434 a 7.258157,7.258157 0 0 0 5.46073,-0.15406 c 0,0 -9.86012,-0.9415 -9.41504,-2.15691 0.44506,-1.2154 4.00566,-0.22254 3.69754,-1.14692 -0.30813,-0.92439 -5.46073,-3.76603 -6.84731,-3.76603 -1.38659,0 -3.95433,2.53351 -5.3238,1.07845 -1.36947,-1.45505 2.29386,-3.02994 0.90728,-3.62907 -1.38659,-0.59914 -3.56061,-0.20543 -7.12122,0 -3.5606,0.20542 -5.71752,5.13548 -8.09696,5.13548 -2.37945,0 -10.27097,5.3409 -11.8801,0.20542 -1.6091,-5.13548 -14.9785,3.54348 -15.74882,3.42366 -0.77032,-0.11978 2.01995,-2.01996 0.61626,-2.65333 -1.4037,-0.63338 -7.03562,2.20825 -8.45644,1.09557 -1.42083,-1.11269 12.39365,-2.61911 12.39365,-2.61911 0,0 3.69755,-2.80739 -0.41083,-3.11552 -4.1084,-0.30813 -17.11831,5.68327 -20.02842,4.82735 -2.91011,-0.85591 -6.11122,6.84733 -10.56198,3.20113 -4.450757,-3.64619 -9.243888,2.77316 -9.928619,4.38228 -0.684731,1.60912 -7.634766,7.27528 -9.654726,7.27528 -2.019948,0 -18.932817,16.34797 -23.674585,16.48492 -4.741782,0.13694 -25.506278,27.47486 -26.259475,31.05258 -0.753209,3.57772 -0.890153,8.18255 -1.711828,9.67184 -0.821687,1.48929 -7.052745,7.84018 -7.052745,7.84018 0,0 -27.2009651,46.47617 -27.2009651,62.7899 0,16.31374 2.48215346,9.38083 2.48215346,9.38083 l -4.94717786,26.27658 c 0,0 5.44360346,8.884395 0,13.335152 -5.4436285,4.450756 2.9101009,6.41936 2.9101009,6.41936 0,0 2.48215346,9.397944 -0.4964382,11.845861 0,0 6.4707254,10.955709 5.9400544,13.609044 a 2.4136796,2.4136796 0 0 0 3.1840009,-1.865894 c 0.5306584,-2.653335 -3.971443,-3.423659 -3.971443,-9.808783 0,-6.385123 -0.530671,-15.406465 -0.530671,-15.406465 0,0 -2.6533299,-2.92723 -1.33521691,-9.552009 a 20.113996,20.113996 0 0 0 -1.06134203,-11.657556 l 2.12267144,-8.45644 4.2453305,2.65333 -2.1226589,11.98281 c 0,0 2.824519,10.853 4.9814232,9.021344 l -1.1298076,5.032778 2.6362262,3.098411 c 0,0 1.2153896,0.222538 1.0442006,2.345207 a 4.9985422,4.9985422 0 0 1 -2.5677481,3.423658 c 0,0 6.2824331,3.885854 6.1112441,7.600525 -0.171189,3.714669 6.350885,7.771704 7.241038,15.543407 a 19.737394,19.737394 0 0 1 -2.122671,12.376533 v 3.885855 c 0,0 7.429344,11.144 13.078382,13.797346 a 94.150623,94.150623 0 0 1 13.437851,8.661859 c 0,0 11.486381,4.057024 14.653266,9.021344 3.166884,4.9642935 11.982807,-5.306685 19.977055,-3.714685 7.994235,1.592001 9.192521,12.7360165 13.968535,14.32801654 a 26.70454,26.70454 0 0 0 8.114065,1.52352296 c 0,0 6.05987,5.032785 17.30659,5.135495 a 95.502967,95.502967 0 0 1 8.1312,7.8915375 c 1.47217,2.037077 4.21109,7.326633 4.21109,7.326633 0,0 9.22676,1.181157 10.52775,6.727484 1.301,5.546327 7.00139,8.011364 7.00139,8.011364 l 3.80026,-1.164053 a 2.0713136,2.0713136 0 0 1 0,2.927243 c -1.45505,1.300984 6.12835,1.164028 9.02135,2.619097 2.89298,1.455057 4.65616,6.573424 6.71037,6.710367 2.05419,0.136944 5.68327,0 5.68327,0 a 3.885853,3.885853 0 0 0 1.1298,-3.646193 c -0.51354,-2.259616 -4.55347,-1.557768 -4.45075,-4.039922 0.10278,-2.482153 6.84731,-5.820214 9.75743,-4.844479 a 11.982806,11.982806 0 0 1 4.89583,3.423655 c 0,0 -0.6505,4.091271 1.47217,5.888693 2.12266,1.797435 4.98142,2.892997 6.48784,6.590536 1.50639,3.69756 1.83164,15.92002 1.83164,15.92002 l -2.00283,0.61627 c 0,0 4.62194,4.19398 3.02994,6.69325 -1.592,2.49927 3.5606,9.32948 -2.79027,8.45644"
         id="path37"
         style="fill:#e4974f;fill-opacity:1;stroke-width:1.71183" /><path
         class="cls-6"
         d="m 34.211183,-210.39455 c 0,0 -27.2009647,46.45905 -27.2009647,62.70431 0,16.24526 2.4821534,9.39794 2.4821534,9.39794 l -4.9471779,26.15676 c 0,0 5.4264872,8.90151 0,13.352268 -5.42651234,4.450756 3.0128119,6.504952 3.0128119,6.504952 0,0 2.4650373,9.380825 -0.4964256,11.828741 0,0 6.4707129,10.955709 5.9400419,13.609045 a 2.4136796,2.4136796 0 0 0 3.166885,-1.865894 c 0.530671,-2.636217 -3.971443,-3.423658 -3.971443,-9.808784 0,-6.385123 -0.530659,-15.406465 -0.530659,-15.406465 0,0 -2.6533551,-2.91011 -1.318113,-9.552013 a 20.268061,20.268061 0 0 0 -1.0784585,-11.69179 l 2.1226595,-8.55915 4.228226,2.65334 -2.105542,11.9828 c 0,0 2.80739,10.853004 4.964307,9.02134 l -1.112692,5.032785 2.636214,3.098411 c 0,0 1.21539,0.222538 1.044226,2.345206 a 4.9985422,4.9985422 0 0 1 -2.567748,3.423659 c 0,0 6.265291,3.885853 6.094102,7.600524 -0.171177,3.714668 6.368014,7.788823 7.258167,15.560529 a 19.840104,19.840104 0 0 1 -2.122672,12.359409 v 3.954328 c 0,0 7.429332,11.144012 13.07837,13.69463 a 93.072171,93.072171 0 0 1 13.437876,8.66187 c 0,0 11.486369,4.074141 14.67037,9.038448 3.184001,4.964307 11.982795,-5.306672 19.977055,-3.714672 7.994248,1.592001 9.175408,12.7188995 13.951408,14.3109005 a 26.909959,26.909959 0 0 0 8.13119,1.523522 c 0,0 6.05988,5.032773 17.28948,5.135496 a 92.866749,92.866749 0 0 1 8.13118,7.891524 c 1.47219,2.0370775 4.21111,7.3266335 4.21111,7.3266335 0,0 9.22677,1.181157 10.54487,6.727484 1.31811,5.546327 7.00138,8.011377 7.00138,8.011377 l 3.78314,-1.164053 a 2.0541954,2.0541954 0 0 1 0,2.910113 c -1.45506,1.318113 6.12836,1.181157 9.02134,2.636214 2.893,1.455057 4.67331,6.556307 6.71038,6.71038 2.03707,0.15406 5.68327,0 5.68327,0 a 3.9543261,3.9543261 0 0 0 1.06133,-1.711828 3.9029713,3.9029713 0 0 0 0,-1.985728 c -0.51354,-2.259602 -4.55346,-1.540651 -4.45075,-4.022792 0.10277,-2.482166 6.84731,-5.820227 9.75743,-4.844492 a 11.982806,11.982806 0 0 1 4.94719,3.423668 c 0,0 -0.66762,4.091271 1.47216,5.888693 2.1398,1.797422 4.96432,2.892984 6.47072,6.59054 1.50641,3.697543 1.83166,15.92002 1.83166,15.92002 l -1.98572,0.61626 c 0,0 4.60483,4.19397 3.01283,6.69324 -1.592,2.49928 3.57771,9.32948 -2.7903,8.45644 a 9.6547183,9.6547183 0 0 0 -1.26675,4.34806 c 0,0 0.85592,-1.23252 1.04422,1.79742 0,0 -0.0855,5.13548 -6.09411,3.42365 0,0 1.26675,3.5606 0.17117,5.13549 -1.09556,1.57488 -1.42081,6.65902 -4.75888,8.165431 0,0 -1.04421,2.49927 1.71183,6.24818 a 52.210799,52.210799 0 0 0 4.57058,5.49498 4.7417678,4.7417678 0 0 0 -0.35947,4.93007 c 1.28386,10.27097 12.54769,21.74022 12.54769,21.74022 0,0 12.75314,6.84732 16.48494,12.97566 3.73177,6.12836 2.19114,5.47786 8.93574,18.43641 0,0 2.17402,0.4622 2.34521,4.12551 0,0 2.48215,-0.42795 3.08129,1.35236 a 28.228069,28.228069 0 0 1 0.8559,3.13263 c 0,0 7.12123,5.59769 7.46358,7.63477 0.34238,2.03708 -0.51353,2.29385 -0.51353,2.29385 0,0 -1.12981,-0.56491 -1.07847,0 0.0514,0.5649 8.33663,8.86727 10.27099,9.32946 0.47931,0.11978 -2.91011,1.71184 -5.94005,4.51923 -2.39656,2.20827 -4.57058,5.13549 -4.33094,8.55916 a 41.357801,41.357801 0 0 1 1.16405,8.35372 c -0.11977,4.2967 -1.52352,9.34659 -1.55777,13.52346 -0.0342,4.17687 0,7.32664 0.39372,7.65187 a 15.218165,15.218165 0 0 1 5.9743,2.43079 52.364864,52.364864 0 0 1 8.06271,5.63194 c 1.47218,1.21539 -2.05419,7.42933 -0.73608,15.30375 1.07845,6.48783 -0.89016,13.3865 -1.90013,19.90858 -1.00998,6.52206 -4.63906,13.30092 -2.49928,16.22813 1.11269,1.54064 3.98857,6.16258 2.2425,10.27098 -1.00997,2.4308 0.8388,4.27957 1.592,6.14548 0.7532,1.86589 0.39372,3.73178 1.1298,4.70752 1.71183,2.31097 3.59485,0.41083 8.73034,-0.13694 4.07415,-0.46219 7.89153,-3.28671 15.7146,-1.71183 4.31381,0.85591 9.03846,0.3766 16.12543,-2.03709 1.98572,-0.6676 6.21394,-4.26244 8.55915,-5.78598 1.592,-0.99286 2.97858,-2.75604 4.72464,-4.02279 2.10555,-1.50641 5.13549,-1.71183 7.37799,-3.5606 4.53635,-3.42367 9.46641,-7.27528 14.72173,-10.92148 8.78168,-6.11123 16.34798,-16.69034 22.33938,-26.24234 4.15975,-6.59054 7.5834,-12.68467 10.15114,-16.48493 8.55916,-12.66753 25.57475,-35.77723 32.31935,-49.79712 1.33523,-2.77316 -3.28671,-11.8801 0,-21.89428 2.01996,-6.16261 10.71604,-2.80742 13.69463,-10.9386 0,0 -7.89153,-7.24105 -6.47072,-10.93859 0.89016,-2.29386 21.03839,-3.42367 21.03839,-3.42367 l 13.52345,-31.58325 c 0,0 -1.1298,-13.81445 4.31381,-25.677441 3.95432,-8.45643 -7.18969,-17.47778 -7.12121,-17.54625 -4.91295,-0.85592 -13.43785,-1.71183 -17.11829,0.63338 -3.68044,2.3452 -26.87572,-4.46788 -26.44777,-8.55915 0.42796,-4.09127 -2.97858,-3.20113 -4.89583,-3.42366 -1.91725,-0.22254 -2.22537,-4.57058 -2.22537,-4.57058 a 13.386507,13.386507 0 0 1 -2.97859,-10.87013 c 1.28388,-6.179693 5.75175,-7.891521 3.42365,-9.175401 -2.32808,-1.283868 -6.60765,-2.550619 -8.31948,-4.262447 a 21.860063,21.860063 0 0 0 -7.89154,-4.484997 c -2.77315,-0.838804 -9.1754,-2.34521 -11.74315,-0.838804 -2.56773,1.506418 -16.82727,1.061342 -19.1725,-4.26246 -2.34519,-5.323776 -21.53481,-10.459272 -21.53481,-10.459272 0,0 0.42798,-2.773157 -1.26675,-3.629077 -1.69471,-0.855908 -7.46357,-5.8373445 -12.1711,-4.41652 -4.70753,1.420824 -1.06134,-2.3965585 -2.55063,-3.2524665 -1.4893,-0.85592 -11.52061,0.530658 -11.52061,1.335217 0,0.804558 -0.20542,3.1497685 -6.84731,3.7831375 -6.64191,0.633382 -6.21396,-1.865888 -6.21396,-1.865888 0,0 -13.43785,2.07131 -14.92715,-0.804558 -1.48928,-2.8758815 -10.37368,-5.8030985 -10.37368,-5.8030985 0,0 -2.63623,-6.659018 -3.26959,-4.74176896 -0.63339,1.91724996 -1.91725,5.32378896 -0.20543,6.38511896 0,0 -8.55914,2.037089 -8.96998,4.9643065 -0.41084,2.92723 -4.46788,-4.1083865 -4.46788,-4.1083865 a 2.3109698,2.3109698 0 0 1 0.75321,-1.009993 2.4136796,2.4136796 0 0 1 1.16404,-0.479309 c 1.4893,-0.222526 3.42367,-0.222526 3.8345,-2.567736 0.41084,-2.34520996 -4.485,-3.18400096 -4.485,-3.18400096 0,0 -2.3452,1.48929 -1.91724,2.55063196 0.42796,1.061329 -9.79167,10.2709675 -15.01274,6.847298 a 5.1354884,5.1354884 0 0 1 -0.95864,3.2696085 c -1.02708,1.027097 -8.95286,-3.5948575 -9.43217,7.121212 -0.47931,10.716043 -8.07983,11.10977 -8.07983,11.10977 0,0 0,0.08552 0.53066,1.369462 a 4.0570359,4.0570359 0 0 1 -0.10278,2.910114 c 0,0 -8.55913,-9.397943 -10.27096,-9.397943 -1.71183,0 -8.09696,-3.184013 -15.57765,2.396559 a 14.653261,14.653261 0 0 1 -15.18393,1.403695 c 0,0 -6.62478,-2.465024 -7.46358,-4.296692 -0.8388,-1.831655 -1.18116,-8.199657 -3.18401,-8.850155 -2.00283,-0.650499 -7.18969,-1.506419 -7.18969,-3.423656 0,-1.91725 -3.73177,-14.8586885 -0.85591,-15.8686565 2.87588,-1.009992 -1.57487,-3.02994 -1.57487,-5.323801 0,-2.2938475 -0.87305,-3.5948315 0.85591,-6.1968245 1.72894,-2.601969 0.13694,-6.04274 -1.00998,-6.333769 -1.14692,-0.291004 -7.18969,2.721808 -9.48354,1.865913 -2.29385,-0.855921 -10.18538,1.403695 -10.18538,1.403695 0,0 -3.30383,0.427947 -3.73179,-0.873037 -0.42796,-1.300997 2.29385,-2.875881 2.29385,-2.875881 a 11.982806,11.982806 0 0 0 1.71183,-6.607656 c -0.29101,-3.423661 3.7489,-5.460739 3.7489,-7.326629 0,-1.865892 -0.15406,-4.895831 -0.15406,-4.895831 0,0 3.88586,-3.885855 3.30383,-5.751746 a 21.055503,21.055503 0 0 0 -1.4379,-3.423661 c 0,0 5.47786,-2.584859 6.21394,-5.460739 0.73609,-2.875879 -1.00997,-5.614801 -3.16689,-5.614801 -2.15689,0 -9.05557,-1.11269 -10.49351,1.300991 -1.43792,2.413676 -8.35372,1.129806 -9.20963,3.423651 a 113.54565,113.54565 0 0 0 -3.59486,11.520619 c -1.1298,4.604825 -9.62047,7.258158 -9.62047,7.258158 0,0 -10.116916,0.667612 -12.718897,2.516388 -2.601981,1.848776 -1.711828,-3.320945 -3.338074,-3.423661 -1.62622,-0.102736 -4.450752,0 -5.30666,-0.616254 -0.85592,-0.616254 -0.222538,-2.721806 -1.28388,-2.721806 -1.061342,0 -2.601981,-2.584873 -1.985728,-3.081298 0.616266,-0.496437 -2.465024,-5.443611 -3.081277,-6.847321 -0.616266,-1.403696 -1.609129,-7.172562 -0.992864,-7.172562 0.616253,0 -3.78315,-3.71467 -0.633382,-13.591926 3.149768,-9.877257 5.238194,-13.917174 5.392267,-17.803028 0.15406,-3.885852 -2.037077,-13.027017 14.858675,-20.661777 16.89577,-7.63476 19.63468,-6.2653 22.6304,-5.85446 2.9957,0.41084 1.91724,3.13265 4.77599,3.66331 2.85875,0.53067 5.30667,-1.90013 6.12836,-3.13264 0.82167,-1.23252 8.01135,-2.49928 10.27098,-2.22538 2.25961,0.27389 6.26528,-0.82168 9.14116,-0.82168 2.87588,0 17.58048,4.22822 17.71742,5.13549 0.13696,0.90727 -0.13694,8.71321 -0.82166,9.39794 -0.68473,0.68473 3.95433,9.021343 3.95433,9.021343 0,0 2.39656,-0.256773 2.2425,3.047058 -0.15406,3.303831 1.71182,-0.256775 1.71182,-0.256775 0,0 2.48215,6.008521 3.86872,6.62478 1.3866,0.616258 3.86875,-1.71183 4.51925,-3.868734 a 33.1239,33.1239 0 0 0 1.07844,-8.559148 48.906968,48.906968 0 0 0 -3.42365,-9.432184 c -0.59915,-1.09557 0.15407,-3.86873 -0.15406,-4.48499 -0.30814,-0.61626 -0.9244,-0.47931 -1.54065,-0.63338 -0.61627,-0.15406 -3.85162,-9.84302 -2.94435,-11.14401 0.90727,-1.30099 6.35089,-6.60766 7.25815,-6.60766 0.90727,0 4.51924,-2.97858 4.51924,-4.15974 0,-1.18117 -1.43793,-7.12122 0.37659,-8.81593 1.81455,-1.69471 8.83305,-4.3994 10.64758,-5.56344 1.81455,-1.16405 9.58626,-7.77171 9.58626,-13.4721 0,-5.70039 -2.85876,-15.52629 -1.04422,-13.69463 1.81453,1.83165 0.95861,6.31665 1.26675,6.84731 0.30813,0.53067 4.26246,-2.12267 4.86161,-6.28241 0.59913,-4.15975 2.5335,-7.25816 4.62192,-6.84732 2.08843,0.41084 0.58204,-6.84732 3.85162,-8.01136 3.2696,-1.16405 2.8074,0.89015 4.74177,0.29101 a 30.52192,30.52192 0 0 0 6.077,-3.85162 48.889851,48.889851 0 0 1 7.84017,0.15407 c 2.5335,0.44507 -0.58202,-5.94005 -1.18115,-5.34091 -0.59914,0.59914 0.75319,2.07131 -0.44508,2.22538 -1.19829,0.15406 -4.14263,-3.42366 -3.25248,-6.36801 0.89015,-2.94434 12.75313,-9.12405 15.40646,-9.92861 2.65335,-0.80456 3.21825,3.66332 6.43648,1.23252 0,0 1.04423,3.30383 3.21825,4.00568 2.17402,0.70185 7.73746,-6.60766 7.73746,-6.60766 0,0 12.18822,-3.04706 13.57481,-6.09412 1.38658,-3.04705 2.1569,2.25962 4.69042,-3.54348 a 5.9742849,5.9742849 0 0 1 -3.18401,-0.51355 c -1.45506,-0.77032 1.1298,-2.13979 -0.68473,-2.41368 -1.81454,-0.27389 -4.50211,2.68757 -4.24533,4.62194 0.25677,1.93437 -6.65902,3.42366 -6.57343,2.22538 0.0855,-1.19828 3.28671,-3.66332 1.93435,-3.85162 -1.35233,-0.1883 -6.35087,5.13549 -7.60052,2.32809 -1.24963,-2.8074 -5.61479,-2.9957 -5.13548,-5.35803 0.47932,-2.36232 -5.32379,-1.23251 -6.29952,-3.184 -0.97575,-1.95149 4.19397,1.11269 5.13548,0 0.9415,-1.11269 -0.22254,-1.71183 0.73609,-1.71183 0.95861,0 0.39372,1.00998 3.42366,0 a 13.55769,13.55769 0 0 0 7.18969,-4.46787 c 2.41366,-2.77317 8.95285,-6.14547 13.21531,-3.30383 4.26245,2.84163 17.61473,9.58624 18.2481,8.85015 0.63338,-0.73608 6.60766,-2.00284 7.24104,0 0.63338,2.00284 6.67613,5.03278 7.41223,2.9957 0.73608,-2.03707 -0.99287,-6.19682 -1.71184,-6.28241 -0.71896,-0.0856 -2.53351,0.5649 -2.53351,-0.5649 0,-1.12981 -1.71183,0.41084 -1.95148,0 -0.23965,-0.41084 -0.41084,-3.42366 0.41084,-3.18401 0.82168,0.23966 -3.42365,0.41084 -3.42365,-2.37944 0,-2.79028 -0.47931,-7.18968 -3.66332,-7.18968 -3.18401,0 -20.79873,-5.03278 -23.88001,-10.54487 -3.0813,-5.51209 -3.0813,-8.96999 -5.88871,-9.22676 -2.8074,-0.25678 -7.82306,0.77032 -9.87725,-0.51355 -2.05419,-1.28388 -4.98143,-4.09127 -6.40225,-4.22822 -1.42082,-0.13695 -2.12266,-0.8388 -4.84448,-3.42366 -2.7218,-2.58486 -4.14262,-1.98572 -7.90865,1.592 -3.76602,3.57773 -13.28379,0.10271 -13.69463,-4.8616 -0.41083,-4.96431 -5.32379,0.97575 -10.40793,-4.38227 -5.08413,-5.35804 -15.01273,0 -15.01273,0 0,0 0.9415,7.27527 0.34235,8.90151 -0.59914,1.62623 -5.75174,4.45075 -5.75174,4.45075 0,0 6.2653,1.36946 7.2068,6.93291 0.9415,5.56345 -8.31949,4.00568 -9.24387,7.10409 -0.9244,3.09842 2.07129,9.17541 0.39371,10.27098 -1.67758,1.09557 -4.38227,6.57343 -5.40938,6.71037 -1.02709,0.13695 -9.00422,-4.81024 -9.00422,-7.37798 0,-2.56775 0.89014,-10.06556 0.89014,-10.06556 0,0 -8.02846,-2.79028 -12.25669,-1.06133 -4.22823,1.72894 -9.96283,-2.10555 -11.5035,-2.49928 -1.54064,-0.39372 -7.29239,0.77033 -9.20964,0.20542 -1.91725,-0.5649 0.56491,-5.56344 0.56491,-5.56344 0,0 -3.06418,1.91725 -3.25248,0.77032 -0.18831,-1.14692 7.60052,-12.92431 19.36079,-15.54341 a 23.965613,23.965613 0 0 1 17.42642,-4.48499 c 0,0 -1.95147,1.18116 -1.2325,1.71183 0.71895,0.53066 4.43363,-0.77033 4.43363,-0.77033 0,0 2.51639,-3.92009 6.02564,-2.94434 a 7.4635766,7.4635766 0 0 0 5.46074,-0.15407 c 0,0 -9.86015,-1.00997 -9.55201,-2.19114 0.30813,-1.18116 4.00569,-0.23966 3.69754,-1.12981 -0.30813,-0.89015 -5.46073,-3.76602 -6.84731,-3.76602 -1.38659,0 -3.95433,2.5335 -5.32379,1.07845 -1.36946,-1.45506 2.29385,-3.04706 0.90727,-3.62908 -1.38659,-0.58202 -3.56061,-0.20542 -7.1212,0 -3.56061,0.20542 -5.71752,5.13549 -8.09696,5.13549 -2.37944,0 -10.27099,5.34091 -11.88009,0.1883 -1.60912,-5.1526 -14.97852,3.56061 -15.74884,3.42366 -0.77032,-0.13695 2.01996,-2.03707 0.61626,-2.65334 -1.40371,-0.61625 -7.03563,2.20827 -8.45644,1.07846 -1.42082,-1.12981 12.39364,-2.58486 12.39364,-2.58486 0,0 3.69755,-2.82452 -0.41083,-3.13266 -4.10839,-0.30813 -17.11829,5.68328 -20.02841,4.82737 -2.91011,-0.85592 -6.11123,6.84731 -10.56198,3.20112 -4.45076,-3.6462 -9.24388,2.77316 -9.92863,4.3994 -0.68471,1.62623 -7.566273,7.29239 -9.586234,7.29239 -2.01996,0 -19.001307,16.31374 -23.760192,16.55339 -4.758885,0.23966 -25.506253,27.38927 -26.259475,31.03547 -0.753196,3.6462 -0.89014,8.19967 -1.711827,9.68896 -0.821675,1.48929 -7.001384,7.84018 -7.001384,7.84018 z"
         id="path39" /><path
         class="cls-3"
         d="m 466.63644,-333.90304 a 408.18574,408.18574 0 0 1 2.56774,45.72296 c 0,223.239677 -180.9746,404.19717 -404.214305,404.19717 A 402.10874,402.10874 0 0 1 -159.99586,47.663742"
         id="path41" /><path
         class="cls-7"
         d="m -84.675367,-17.111889 c 0,0 15.012744,24.4278065 29.101101,39.988342 14.088356,15.560535 30.008382,27.269443 41.956944,28.279406 11.948574,1.01 20.8672075,-8.696078 20.8672075,-8.696078 0,0 5.2895435,-4.981424 13.6946225,-18.830131 8.405079,-13.8487085 41.631705,-72.615803 41.631705,-72.615803 0,0 40.467637,-77.956717 85.882487,-80.079387 50.08813,-2.32809 70.35619,48.975447 70.35619,48.975447 22.25378,42.795733 73.60867,206.326813 114.57275,203.861763 33.87709,-2.05419 53.85415,-41.528981 53.85415,-41.528981 0,0 35.94842,-65.5117 38.65311,-70.185003 6.60766,-11.28095946 31.66885,-53.546021 77.90535,-49.215101 46.23652,4.330934 79.13788,36.0853695 79.13788,36.0853695 0,0 29.97415,27.4748655 39.08106,42.2993075 l -36.65025,25.506257 c 0,0 -38.90989,-59.2635415 -86.68706,-59.3148905 -24.25663,0 -49.50609,48.3078405 -61.7628,74.1564605 C 416.37713,124.78166 376.81675,177.43753 329.41619,173.12372 267.00289,167.52603 228.26418,67.726379 211.09454,22.157477 203.87062,2.9849795 175.14611,-78.104371 151.84811,-78.566565 123.67139,-79.13147 80.13958,8.8394395 80.13958,8.8394395 c 0,0 -36.256542,74.6186595 -76.5701337,85.4545295 C -36.247707,105.01003 -80.977815,76.936029 -123.51678,4.4400495 Z"
         id="path43"
         style="fill:#ffffff;fill-opacity:1;stroke-width:1.71183" /><path
         class="cls-3"
         d="m -84.675367,-28.52979 c 0,0 15.012744,24.4278035 29.101101,39.98834 14.088356,15.560535 29.922775,27.269442 41.871349,28.279422 11.9485619,1.009981 20.8671954,-8.696095 20.8671954,-8.696095 0,0 5.2895686,-4.981423 13.6946476,-18.744523 8.405079,-13.7631265 41.614563,-72.68429 41.614563,-72.68429 0,0 40.467651,-77.956714 85.882481,-80.079384 50.08814,-2.32809 70.35621,48.975441 70.35621,48.975441 22.25377,42.795744 73.60867,206.343929 114.57274,203.861779 33.8771,-2.03708 53.85416,-41.528981 53.85416,-41.528981 0,0 35.94842,-65.5117175 38.65311,-70.18502046 6.60767,-11.28095854 31.66883,-53.52890654 77.90536,-49.21508854 46.23651,4.313806 79.13788,36.102487 79.13788,36.102487 0,0 29.97413,27.389257 39.08107,42.282178 l -36.65027,25.506264 c 0,0 -38.90989,-59.2293035 -86.68706,-59.2293035 -24.25661,0 -49.50611,48.3078275 -61.76279,74.1564635 C 416.27441,113.46646 376.71404,166.12234 329.31348,161.80853 266.90018,156.21085 228.16148,56.411189 210.99182,10.842297 203.76791,-8.3302005 175.04341,-89.419566 151.74541,-89.88176 123.5687,-90.446662 80.036856,-2.4757405 80.036856,-2.4757405 c 0,0 -36.239425,74.6357595 -76.5530042,85.4887695 C -36.333303,93.729069 -81.046288,65.655069 -123.60237,-6.8580395 Z"
         id="path45" /></g></g></svg>
